<?xml version="1.0" standalone="no"?><svg xmlns:xlink="http://www.w3.org/1999/xlink" xmlns="http://www.w3.org/2000/svg" viewBox="0 0 10000 10000" preserveAspectRatio="xMaxYMax slice"><g transform="scale(14.992503748125937)"><rect x="0" y="0" width="667" height="667" fill="#ffffff"/><polygon points="0,0 133.4,0 133.4,133.4" fill="#183FE1"/><polygon points="266.8,0 400.20000000000005,0 400.20000000000005,133.4" fill="#183FE1"/><polygon points="400.2,0 533.6,133.4 400.2,133.4" fill="#183FE1"/><polygon points="0,133.4 133.4,266.8 0,266.8" fill="#183FE1"/><polygon points="266.8,133.4 400.20000000000005,266.8 266.8,266.8" fill="#183FE1"/><polygon points="400.2,133.4 533.6,133.4 533.6,266.8" fill="#183FE1"/><polygon points="133.4,266.8 266.8,266.8 266.8,400.20000000000005" fill="#183FE1"/><polygon points="533.6,266.8 667,266.8 533.6,400.20000000000005" fill="#183FE1"/><polygon points="0,400.2 133.4,400.2 133.4,533.6" fill="#183FE1"/><polygon points="266.8,400.2 400.20000000000005,400.2 266.8,533.6" fill="#183FE1"/><polygon points="533.6,400.2 667,533.6 533.6,533.6" fill="#183FE1"/><polygon points="133.4,533.6 133.4,667 0,667" fill="#183FE1"/><polygon points="133.4,533.6 266.8,533.6 266.8,667" fill="#183FE1"/><polygon points="266.8,533.6 400.20000000000005,667 266.8,667" fill="#183FE1"/><polygon points="400.2,533.6 533.6,667 400.2,667" fill="#183FE1"/></g></svg>